<svg xmlns="http://www.w3.org/2000/svg" width="180" height="72" viewBox="0 0 180 72">
  <g id="Group_3465" data-name="Group 3465" transform="translate(-200 -51)">
    <g id="information" transform="translate(201.503 55.783)">
      <g id="Group_1300" data-name="Group 1300">
        <g id="Group_1299" data-name="Group 1299">
          <path id="Path_10" data-name="Path 10" d="M169.389,75.035c-8.55.006-10.359-9.8-10.359-17.963,0-8.186,1.809-17.963,10.372-17.969,8.538.006,10.359,9.8,10.359,17.957,0,8.186-1.809,17.988-10.372,17.976m.012-48.606c-13.47-.025-25.287,6.109-29.478,19.492l-.66.006-.006-17.191-20.436.012.006,31.461c-.006,7.738-2.089,11.278-8.124,11.284-6.365-.006-8.108-3.814-8.108-11.278l.009-31.467H82.4l-.012,29.3c0,1.158.134,2.117.2,3.195l-.52.149L68.783,28.755l-20.242-.006L24.095,88.863H46.707L58.38,52.292h.268l.047.006.243-.006,11.68,36.571,22.6-.006-4.269-10.5.358-.171C93.986,82.2,101.082,83.8,110.788,83.8c16.914.006,25.589-5.016,27.824-18.091l.576-.006c3.444,15.145,15.93,21.989,30.2,21.983,16.783.012,31.215-9.326,31.234-30.63-.009-21.329-14.435-30.63-31.222-30.63" transform="translate(-24.095 -26.429)" fill="#005087"/>
        </g>
      </g>
    </g>
    <rect id="Rectangle_275" data-name="Rectangle 275" width="180" height="72" transform="translate(200 51)" fill="none"/>
  </g>
</svg>
